<svg version="1.1" viewBox="0 0 800 800" xmlns="http://www.w3.org/2000/svg" width="800" height="800">
    <!-- Order of the Valorous Heart: heart bearing a cross -->
    <path fill-rule="evenodd"
        d="M400,650 C250,520 120,420 120,300 C120,220 180,160 260,160 C320,160 370,200 400,260 C430,200 480,160 540,160 C620,160 680,220 680,300 C680,420 550,520 400,650 Z
           M380,280 L420,280 L420,360 L500,360 L500,400 L420,400 L420,480 L380,480 L380,400 L300,400 L300,360 L380,360 Z" />
</svg>
