<?xml version="1.0" encoding="UTF-8" standalone="no"?>
<!-- Created with Inkscape (http://www.inkscape.org/) -->

<svg
   width="16.22724mm"
   height="16.227238mm"
   viewBox="0 0 16.22724 16.227238"
   version="1.1"
   id="svg1"
   inkscape:export-filename="custom40k_command_phase.svg"
   inkscape:export-xdpi="96"
   inkscape:export-ydpi="96"
   xmlns:inkscape="http://www.inkscape.org/namespaces/inkscape"
   xmlns:sodipodi="http://sodipodi.sourceforge.net/DTD/sodipodi-0.dtd"
   xmlns="http://www.w3.org/2000/svg"
   xmlns:svg="http://www.w3.org/2000/svg">
  <sodipodi:namedview
     id="namedview1"
     pagecolor="#ffffff"
     bordercolor="#999999"
     borderopacity="1"
     inkscape:showpageshadow="2"
     inkscape:pageopacity="0"
     inkscape:pagecheckerboard="0"
     inkscape:deskcolor="#d1d1d1"
     inkscape:document-units="mm">
    <inkscape:page
       x="0"
       y="0"
       width="16.22724"
       height="16.227238"
       id="page2"
       margin="0"
       bleed="0" />
  </sodipodi:namedview>
  <defs
     id="defs1" />
  <g
     inkscape:label="Layer 1"
     inkscape:groupmode="layer"
     id="layer1"
     transform="translate(-55.033331,-28.574998)">
    <g
       id="g2"
       transform="translate(42.699367,-68.228522)">
      <rect
         style="display:inline;fill:none;fill-opacity:1;stroke:#a21217;stroke-width:0.72073;stroke-dasharray:none;stroke-opacity:1"
         id="rect1-8-6-2-7-3-9-7"
         width="10.753659"
         height="10.753659"
         x="83.269417"
         y="54.352165"
         transform="rotate(45)" />
      <path
         style="display:inline;fill:#a21217;fill-opacity:1;stroke-width:0.0130395;stroke-dasharray:none"
         d="m 18.352482,109.20643 -0.0236,-0.0155 0.004,-0.19093 0.004,-0.19093 0.20697,-0.008 c 0.37448,-0.0138 0.62749,-0.13984 0.77778,-0.38761 0.10959,-0.18074 0.10974,-0.18264 0.12034,-1.6935 l 0.009,-1.31237 -0.0949,-0.0616 c -0.0522,-0.0338 -0.14492,-0.10426 -0.20605,-0.1565 l -0.11114,-0.095 -0.35506,-0.004 -0.35507,-0.004 -0.013,-0.0185 c -0.008,-0.0102 -0.0132,-0.11652 -0.0133,-0.23634 -2e-4,-0.2733 -0.0141,-0.25658 0.21466,-0.25658 0.18405,0 0.18725,-0.002 0.15856,-0.0641 -0.008,-0.0155 -0.0267,-0.0769 -0.0435,-0.13613 l -0.0305,-0.10783 h -0.24579 -0.24579 l -0.0142,-0.0239 c -0.018,-0.0301 -0.0187,-0.4437 -5.8e-4,-0.46905 0.0107,-0.0152 0.0574,-0.0189 0.2585,-0.0208 0.1867,-0.002 0.24753,-0.005 0.25421,-0.0185 0.004,-0.009 0.0215,-0.0633 0.0368,-0.12089 0.0154,-0.0576 0.0324,-0.11721 0.0376,-0.13247 l 0.01,-0.0278 h -0.1731 c -0.20984,0 -0.30892,-0.23717 -0.20302,-0.48594 l 0.0135,-0.0316 h 0.34376 0.34374 l 0.11191,-0.0979 c 0.0616,-0.0538 0.15229,-0.12368 0.20167,-0.15514 0.10653,-0.0679 0.15317,-0.71217 0.0767,-1.05929 -0.0794,-0.3599 -0.49778,-0.63461 -0.96671,-0.63461 -0.0727,0 -0.0955,-0.004 -0.10196,-0.0196 -0.0135,-0.0314 -0.009,-0.31764 0.005,-0.33786 l 0.013,-0.0185 2.08058,-0.003 c 1.28743,-0.002 2.08846,0.002 2.10127,0.009 0.0265,0.0148 0.0386,0.30395 0.0144,0.34428 l -0.0154,0.0257 h -0.0836 c -0.32245,0 -0.67025,0.14888 -0.8289,0.35482 -0.14336,0.18609 -0.16279,0.28572 -0.16279,0.83502 v 0.43599 l 0.0794,0.052 c 0.0437,0.0285 0.1362,0.10088 0.20571,0.16059 l 0.12639,0.10858 h 0.33654 c 0.4107,0 0.36966,-0.029 0.36966,0.26081 v 0.23123 l -0.0267,0.0126 c -0.0148,0.007 -0.0985,0.0128 -0.18627,0.0128 -0.0878,0 -0.15956,0.002 -0.15953,0.003 2e-4,0.0169 0.0796,0.27825 0.0882,0.29067 0.009,0.013 0.0621,0.0156 0.2518,0.0121 l 0.24033,-0.004 0.0132,0.0185 c 0.018,0.0253 0.0173,0.43892 -5.6e-4,0.46907 l -0.0143,0.0239 h -0.24763 -0.24749 l -0.0211,0.0709 c -0.0117,0.039 -0.0303,0.0966 -0.0419,0.12794 -0.0114,0.0314 -0.0206,0.0688 -0.0206,0.0832 v 0.0262 h 0.15088 c 0.083,0 0.16695,0.005 0.18658,0.0122 l 0.0356,0.0121 -0.004,0.23687 -0.004,0.23687 -0.0345,0.009 c -0.019,0.004 -0.18143,0.009 -0.36102,0.01 l -0.32651,0.002 -0.12882,0.11034 c -0.0709,0.0606 -0.16104,0.12861 -0.20042,0.15096 -0.0395,0.0223 -0.0751,0.0479 -0.0793,0.0567 -0.0147,0.0311 0.0185,2.65781 0.0347,2.75223 0.0673,0.39152 0.41437,0.6389 0.89615,0.6389 h 0.17844 l 0.009,0.0293 c 0.0177,0.0628 4e-4,0.36519 -0.0216,0.37755 -0.0341,0.0192 -4.15594,0.0159 -4.18547,-0.004 z m 2.44472,-3.87246 c 0.52532,-0.11359 0.9508,-0.48487 1.10139,-0.96105 l 0.0389,-0.12322 -2.1e-4,-0.22798 c -1.9e-4,-0.26784 -0.0118,-0.32061 -0.11996,-0.54635 -0.44332,-0.92561 -1.88827,-1.08328 -2.57697,-0.28119 -0.86992,1.01315 0.16822,2.44007 1.55681,2.13979 z m -0.64633,-0.13794 c -0.0311,-0.01 -0.0553,-0.0419 -0.0553,-0.0738 0,-0.0455 -0.0352,-0.0329 -0.0589,0.0208 -0.0215,0.0492 -0.0771,0.0699 -0.0997,0.0371 -0.007,-0.01 0.004,-0.14609 0.0245,-0.31428 l 0.003,-0.0247 -0.11313,0.004 -0.11312,0.004 -0.0355,-0.0342 c -0.15937,-0.15356 -0.21766,-0.38746 -0.13672,-0.54854 l 0.038,-0.0756 -0.0159,-0.0634 c -0.009,-0.035 -0.0317,-0.11604 -0.0513,-0.18044 -0.1822,-0.60222 0.1709,-1.03132 0.86924,-1.05634 0.73765,-0.0265 1.13478,0.42413 0.94191,1.06867 -0.0589,0.19699 -0.0627,0.24671 -0.0221,0.30471 l 0.0324,0.0466 v 0.11706 0.11707 l -0.0567,0.10545 c -0.0312,0.058 -0.0776,0.12667 -0.10307,0.15259 l -0.0464,0.047 -0.11567,-0.008 -0.11568,-0.008 0.009,0.0409 c 0.0153,0.0733 0.0324,0.26844 0.0254,0.29219 -0.0152,0.0518 -0.0892,0.0231 -0.10743,-0.0417 -0.0133,-0.0475 -0.0449,-0.0422 -0.0559,0.009 -0.0138,0.0658 -0.0897,0.082 -0.14942,0.0318 l -0.0299,-0.0251 -0.0174,0.025 c -0.0129,0.0185 -0.0292,0.024 -0.0617,0.0211 l -0.0443,-0.004 -0.004,-0.0392 c -0.009,-0.0805 -0.066,-0.0836 -0.074,-0.004 l -0.004,0.0432 -0.0476,0.004 c -0.0332,0.003 -0.0529,-0.003 -0.0654,-0.0175 l -0.0177,-0.0215 -0.0244,0.0191 c -0.0299,0.0235 -0.0726,0.0343 -0.10026,0.0257 z m 0.25429,-0.42374 0.0489,-0.0259 0.0466,0.0259 c 0.0612,0.0338 0.0641,0.033 0.0641,-0.0162 0,-0.14333 -0.12825,-0.20724 -0.19198,-0.0957 -0.0649,0.11374 -0.0525,0.15662 0.0322,0.1119 z m -0.32216,-0.2089 c 0.14767,-0.0419 0.2443,-0.11775 0.18998,-0.14889 -0.0437,-0.0251 -0.28568,-0.0855 -0.36929,-0.0923 l -0.0908,-0.008 -0.0289,0.0229 c -0.14898,0.11864 0.0765,0.2889 0.29892,0.22568 z m 0.98183,-0.0201 c 0.12572,-0.10542 0.10357,-0.22589 -0.0416,-0.22589 -0.1196,0 -0.41706,0.0899 -0.41706,0.12596 0,0.0992 0.36476,0.17861 0.45862,0.0999 z"
         id="path1-0-3" />
    </g>
  </g>
</svg>
