<?xml version="1.0" encoding="UTF-8" standalone="no"?>
<!-- Created with Inkscape (http://www.inkscape.org/) -->

<svg
   width="16.22724mm"
   height="16.22724mm"
   viewBox="0 0 16.22724 16.22724"
   version="1.1"
   id="svg1"
   inkscape:export-filename="custom40k_reinforce_phase.svg"
   inkscape:export-xdpi="96"
   inkscape:export-ydpi="96"
   xmlns:inkscape="http://www.inkscape.org/namespaces/inkscape"
   xmlns:sodipodi="http://sodipodi.sourceforge.net/DTD/sodipodi-0.dtd"
   xmlns="http://www.w3.org/2000/svg"
   xmlns:svg="http://www.w3.org/2000/svg">
  <sodipodi:namedview
     id="namedview1"
     pagecolor="#ffffff"
     bordercolor="#999999"
     borderopacity="1"
     inkscape:showpageshadow="2"
     inkscape:pageopacity="0"
     inkscape:pagecheckerboard="0"
     inkscape:deskcolor="#d1d1d1"
     inkscape:document-units="mm">
    <inkscape:page
       x="0"
       y="0"
       width="16.22724"
       height="16.22724"
       id="page2"
       margin="0"
       bleed="0" />
  </sodipodi:namedview>
  <defs
     id="defs1">
    <clipPath
       clipPathUnits="userSpaceOnUse"
       id="clipPath211-4">
      <path
         d="m 172.913,700.866 14.174,-14.172 14.173,14.172 -14.173,14.173 z"
         transform="translate(-192.81193,-699.75011)"
         id="path211-2" />
    </clipPath>
  </defs>
  <g
     inkscape:label="Layer 1"
     inkscape:groupmode="layer"
     id="layer1"
     transform="translate(-111.38957,-99.747914)">
    <g
       id="g3"
       transform="translate(99.00196,30.261396)">
      <rect
         style="display:inline;fill:none;fill-opacity:1;stroke:#a21217;stroke-width:0.72073;stroke-dasharray:none;stroke-opacity:1"
         id="rect1-8-6-2-7-3-9"
         width="10.753659"
         height="10.753659"
         x="63.991322"
         y="34.998188"
         transform="rotate(45)" />
      <path
         id="path210-7"
         d="M 0,0 4.085,1.019 0.023,2.009 C -0.042,2.401 -0.146,2.778 -0.286,3.14 L 1.459,5.167 -1.19,4.695 c -0.278,0.342 -0.594,0.654 -0.943,0.928 l 0.45,2.442 -1.932,-1.589 C -3.996,6.628 -4.396,6.74 -4.811,6.813 L -5.882,10.885 -6.926,6.817 C -7.369,6.741 -7.796,6.623 -8.2,6.458 l -1.86,1.52 0.441,-2.347 C -9.968,5.359 -10.284,5.05 -10.563,4.71 l -2.511,0.439 1.64,-1.893 c -0.152,-0.366 -0.264,-0.751 -0.337,-1.15 l -4.197,-1.048 4.199,-1.023 c 0.078,-0.421 0.198,-0.828 0.364,-1.213 l -1.579,-1.834 2.439,0.434 c 0.285,-0.345 0.611,-0.655 0.968,-0.929 l -0.464,-2.52 2.019,1.661 c 0.336,-0.126 0.686,-0.224 1.049,-0.289 l 1.051,-3.997 1.022,3.981 c 0.392,0.063 0.77,0.162 1.133,0.296 l 2.102,-1.719 -0.49,2.61 c 0.357,0.277 0.68,0.593 0.964,0.941 L 1.39,-2.994 -0.306,-1.037 C -0.173,-0.705 -0.069,-0.359 0,0 m -5.912,-3.292 c -2.405,0 -4.356,1.9 -4.356,4.244 0,2.344 1.951,4.244 4.356,4.244 2.406,0 4.356,-1.9 4.356,-4.244 0,-2.344 -1.95,-4.244 -4.356,-4.244"
         style="display:inline;fill:#a2151b;fill-opacity:1;fill-rule:nonzero;stroke:none;stroke-width:0.999911;stroke-dasharray:none"
         transform="matrix(0.54833888,0,0,-0.54833888,23.759194,78.212362)"
         clip-path="url(#clipPath211-4)" />
    </g>
  </g>
</svg>
