<?xml version="1.0" encoding="UTF-8" standalone="no"?>
<!-- Created with Inkscape (http://www.inkscape.org/) -->

<svg
   width="16.22724mm"
   height="16.22724mm"
   viewBox="0 0 16.22724 16.22724"
   version="1.1"
   id="svg1"
   inkscape:export-filename="custom40k_rally_phase.svg"
   inkscape:export-xdpi="96"
   inkscape:export-ydpi="96"
   xmlns:inkscape="http://www.inkscape.org/namespaces/inkscape"
   xmlns:sodipodi="http://sodipodi.sourceforge.net/DTD/sodipodi-0.dtd"
   xmlns="http://www.w3.org/2000/svg"
   xmlns:svg="http://www.w3.org/2000/svg">
  <sodipodi:namedview
     id="namedview1"
     pagecolor="#ffffff"
     bordercolor="#999999"
     borderopacity="1"
     inkscape:showpageshadow="2"
     inkscape:pageopacity="0"
     inkscape:pagecheckerboard="0"
     inkscape:deskcolor="#d1d1d1"
     inkscape:document-units="mm">
    <inkscape:page
       x="0"
       y="0"
       width="16.22724"
       height="16.22724"
       id="page2"
       margin="0"
       bleed="0" />
  </sodipodi:namedview>
  <defs
     id="defs1" />
  <g
     inkscape:label="Layer 1"
     inkscape:groupmode="layer"
     id="layer1"
     transform="translate(-92.074994,-50.270834)">
    <g
       id="g9-8-1"
       style="display:inline;fill:#a21217;fill-opacity:1;stroke-width:0.999911;stroke-dasharray:none"
       transform="matrix(0.49346713,0,0,0.49346713,42.406157,-30.904673)">
      <g
         id="g2-8"
         transform="matrix(0.04248049,0,0,0.04248049,108.97737,174.31498)"
         style="fill:#a21217;fill-opacity:1">
	
</g>
      <g
         id="g8-0-9"
         transform="matrix(0.63958752,0,0,0.63958752,56.240641,59.013926)"
         style="fill:#a21217;fill-opacity:1">
        <rect
           style="fill:none;fill-opacity:1;stroke:#a21217;stroke-width:0.999911;stroke-dasharray:none;stroke-opacity:1"
           id="rect1-8-6-2-7-3"
           width="14.919181"
           height="14.919181"
           x="201.08604"
           y="-7.4668016"
           transform="matrix(1.614872,1.614872,-1.614872,1.614872,-241.64012,-146.12676)" />
        <g
           id="g18-8-8"
           transform="matrix(1.2131509,0,0,1.2131509,-18.148103,-41.719777)"
           style="fill:#a21217;fill-opacity:1">
          <path
             d="M 117.251,0 C 52.598,0 0,52.597 0,117.251 c 0,64.651 52.598,117.251 117.251,117.251 64.653,0 117.251,-52.6 117.251,-117.251 C 234.502,52.597 181.904,0 117.251,0 Z m 0,15.562 c 18.649,0 36.125,5.071 51.167,13.867 L 117.891,67.845 66.118,29.407 C 81.151,20.624 98.617,15.562 117.251,15.562 Z M 79.94,62.268 102.855,79.278 88.542,89.687 Z m 4.083,75.046 -30.605,0.301 25.226,-18.317 z m 29.197,-43.124 4.647,-3.378 13.971,9.981 8.721,6.476 -9.281,29.581 -27.853,0.274 -8.99,-28.655 z m 19.841,-15.085 21.447,-16.308 -8.175,26.062 -3.649,-2.608 z m 23.233,39.166 25.304,18.086 -30.798,0.302 z m -140.731,-1.02 c 0,-31.893 14.77,-60.389 37.814,-79.047 l 19.68,62.728 -54.738,39.751 c -1.784,-7.529 -2.756,-15.369 -2.756,-23.432 z m 7.711,38.804 66.153,-0.646 18.854,63.113 C 69.834,215.143 37.464,190.295 23.274,156.055 Z m 94.034,25.319 -8.208,-26.161 16.466,-0.161 z m 9.029,37.14 19.024,-63.656 66.598,-0.653 c -13.764,35.152 -46.538,60.826 -85.622,64.309 z m 35.53,-118.556 19.35,-61.68 c 22.994,18.658 37.723,47.122 37.723,78.973 0,7.481 -0.834,14.771 -2.375,21.795 z"
             id="path1-7-4"
             style="fill:#a21217;fill-opacity:1"
             transform="matrix(0.06641857,0,0,0.06641857,82.454278,180.27408)" />
          <rect
             style="fill:#a21217;fill-opacity:1;stroke:none;stroke-width:0.513584;stroke-dasharray:none;stroke-opacity:1"
             id="rect8-1-7-1"
             width="2.9525299"
             height="9.5774755"
             x="194.76222"
             y="-104.14464"
             transform="rotate(90)" />
          <rect
             style="fill:#a21217;fill-opacity:1;stroke:none;stroke-width:0.513584;stroke-dasharray:none;stroke-opacity:1"
             id="rect8-1-1-8-4"
             width="2.9525299"
             height="9.5774755"
             x="-100.80527"
             y="-201.03014"
             transform="scale(-1)" />
        </g>
      </g>
    </g>
  </g>
</svg>
