<svg version="1.1" viewBox="0 0 800 800" xmlns="http://www.w3.org/2000/svg" width="800" height="800">
    <!-- Order of the Argent Shroud: ebon skull with an Iron Halo, draped in a shroud -->
    <path fill-rule="evenodd"
        d="M320,170 A80,80 0 1,0 480,170 A80,80 0 1,0 320,170 Z
           M342,170 A58,58 0 1,0 458,170 A58,58 0 1,0 342,170 Z" />
    <path fill-rule="evenodd"
        d="M270,380 C270,300 320,260 400,260 C480,260 530,300 530,380 C530,430 480,460 400,460 C320,460 270,430 270,380 Z
           M327,350 A28,38 0 1,0 383,350 A28,38 0 1,0 327,350 Z
           M417,350 A28,38 0 1,0 473,350 A28,38 0 1,0 417,350 Z
           M400,375 L385,410 L415,410 Z" />
    <path d="M300,460 C260,520 240,600 260,700 C300,680 340,700 380,690 C400,685 400,685 420,690 C460,700 500,680 540,700 C560,600 540,520 500,460 C460,480 340,480 300,460 Z" />
</svg>
